<svg width="900" height="520" viewBox="0 0 900 520" fill="none" xmlns="http://www.w3.org/2000/svg" role="img" aria-labelledby="title desc">
  <title id="title">AI-powered workflows accelerating growth</title>
  <desc id="desc">Abstract visual of AI workflow nodes connecting leads, operations, customer response, and growth outcomes.</desc>
  <rect width="900" height="520" rx="34" fill="url(#bg)"/>
  <g opacity="0.9">
    <circle cx="450" cy="260" r="116" fill="url(#coreGlow)"/>
    <circle cx="450" cy="260" r="70" fill="white" fill-opacity="0.82" stroke="#00F1FE" stroke-width="3"/>
    <path d="M420 265 L445 290 L486 230" stroke="#00696F" stroke-width="12" stroke-linecap="round" stroke-linejoin="round"/>
  </g>
  <g stroke="#00F1FE" stroke-width="5" stroke-linecap="round" opacity="0.78">
    <path d="M450 190 C390 112 294 96 205 132"/>
    <path d="M520 245 C645 206 710 142 764 80"/>
    <path d="M515 310 C634 350 700 405 773 445"/>
    <path d="M382 320 C286 390 210 406 125 374"/>
  </g>
  <g font-family="Inter, Arial, sans-serif" font-weight="700">
    <g>
      <rect x="70" y="96" width="210" height="96" rx="22" fill="white" fill-opacity="0.86" stroke="#C4C6D0" stroke-opacity="0.6"/>
      <text x="175" y="136" text-anchor="middle" font-size="18" fill="#001736">Lead Flow</text>
      <text x="175" y="165" text-anchor="middle" font-size="13" fill="#43474F" font-weight="500">capture · qualify · follow up</text>
    </g>
    <g>
      <rect x="642" y="48" width="206" height="96" rx="22" fill="white" fill-opacity="0.86" stroke="#C4C6D0" stroke-opacity="0.6"/>
      <text x="745" y="88" text-anchor="middle" font-size="18" fill="#001736">Customer Response</text>
      <text x="745" y="117" text-anchor="middle" font-size="13" fill="#43474F" font-weight="500">faster answers · 24/7 routing</text>
    </g>
    <g>
      <rect x="642" y="384" width="206" height="96" rx="22" fill="white" fill-opacity="0.86" stroke="#C4C6D0" stroke-opacity="0.6"/>
      <text x="745" y="424" text-anchor="middle" font-size="18" fill="#001736">Growth Signals</text>
      <text x="745" y="453" text-anchor="middle" font-size="13" fill="#43474F" font-weight="500">ROI · revenue · productivity</text>
    </g>
    <g>
      <rect x="54" y="330" width="210" height="96" rx="22" fill="white" fill-opacity="0.86" stroke="#C4C6D0" stroke-opacity="0.6"/>
      <text x="159" y="370" text-anchor="middle" font-size="18" fill="#001736">Operations</text>
      <text x="159" y="399" text-anchor="middle" font-size="13" fill="#43474F" font-weight="500">automate · simplify · measure</text>
    </g>
  </g>
  <g opacity="0.58">
    <circle cx="315" cy="94" r="6" fill="#00F1FE"/>
    <circle cx="596" cy="156" r="5" fill="#00696F"/>
    <circle cx="594" cy="360" r="6" fill="#00F1FE"/>
    <circle cx="306" cy="396" r="5" fill="#00696F"/>
    <path d="M310 255 H240" stroke="#00696F" stroke-width="4" stroke-linecap="round" stroke-dasharray="10 12"/>
    <path d="M590 260 H665" stroke="#00696F" stroke-width="4" stroke-linecap="round" stroke-dasharray="10 12"/>
  </g>
  <defs>
    <linearGradient id="bg" x1="0" y1="0" x2="900" y2="520" gradientUnits="userSpaceOnUse">
      <stop stop-color="#F9FBFF"/>
      <stop offset="0.5" stop-color="#EAF7FF"/>
      <stop offset="1" stop-color="#F9F9F9"/>
    </linearGradient>
    <radialGradient id="coreGlow" cx="0" cy="0" r="1" gradientUnits="userSpaceOnUse" gradientTransform="translate(450 260) rotate(90) scale(116)">
      <stop stop-color="#00F1FE" stop-opacity="0.48"/>
      <stop offset="1" stop-color="#00F1FE" stop-opacity="0"/>
    </radialGradient>
  </defs>
</svg>
