<svg xmlns="http://www.w3.org/2000/svg" viewBox="0 0 1200 720" role="img" aria-labelledby="title desc">
<title id="title">AI-assisted business growth</title><desc id="desc">Abstract AI workflow visual showing growth without extra headcount.</desc>
<defs><linearGradient id="bg" x1="0" y1="0" x2="1" y2="1"><stop stop-color="#001736"/><stop offset=".55" stop-color="#002b5b"/><stop offset="1" stop-color="#00f1fe"/></linearGradient><radialGradient id="orb" cx="62%" cy="35%" r="52%"><stop stop-color="#00f1fe" stop-opacity=".9"/><stop offset=".45" stop-color="#00f1fe" stop-opacity=".18"/><stop offset="1" stop-color="#001736" stop-opacity="0"/></radialGradient><filter id="blur"><feGaussianBlur stdDeviation="18"/></filter></defs>
<rect width="1200" height="720" rx="52" fill="url(#bg)"/><circle cx="820" cy="220" r="300" fill="url(#orb)" filter="url(#blur)"/><g fill="none" stroke="#bffcff" stroke-opacity=".55" stroke-width="3"><path d="M170 490 C330 350 440 585 600 400 S870 225 1030 310"/><path d="M190 555 C380 440 485 625 690 455 S900 330 1040 405"/></g><g fill="#ffffff" opacity=".95"><rect x="125" y="145" width="290" height="180" rx="28" opacity=".92"/><rect x="455" y="110" width="270" height="215" rx="28" opacity=".82"/><rect x="765" y="160" width="300" height="185" rx="28" opacity=".9"/><rect x="240" y="405" width="280" height="150" rx="28" opacity=".86"/><rect x="620" y="410" width="310" height="150" rx="28" opacity=".8"/></g><g fill="#001736"><circle cx="175" cy="195" r="20"/><circle cx="505" cy="165" r="20"/><circle cx="815" cy="212" r="20"/><circle cx="292" cy="452" r="20"/><circle cx="672" cy="455" r="20"/></g><g stroke="#00f1fe" stroke-width="11" stroke-linecap="round" fill="none"><path d="M205 258h150M205 285h95M535 227h135M535 255h92M845 270h148M845 298h95M322 503h135M704 505h155"/></g><g fill="#00f1fe"><circle cx="586" cy="365" r="50"/><path d="M586 300v-45M586 475v-45M521 365h-45M696 365h-45" stroke="#00f1fe" stroke-width="18" stroke-linecap="round"/></g><text x="92" y="645" fill="#ffffff" font-family="Arial, sans-serif" font-size="34" font-weight="700" opacity=".92">AI agents extend capacity while your team stays focused.</text></svg>